<svg width="22" height="22" viewBox="0 0 22 22" fill="none" xmlns="http://www.w3.org/2000/svg">
<path d="M3.25 1.5C2.78587 1.5 2.34075 1.68437 2.01256 2.01256C1.68437 2.34075 1.5 2.78587 1.5 3.25V18.75C1.50001 19.1708 1.65165 19.5775 1.92714 19.8956C2.20263 20.2137 2.58351 20.4219 3 20.482V13.25C3 12.6533 3.23705 12.081 3.65901 11.659C4.08097 11.2371 4.65326 11 5.25 11H16.75C17.3467 11 17.919 11.2371 18.341 11.659C18.7629 12.081 19 12.6533 19 13.25V20.482C19.4165 20.4219 19.7974 20.2137 20.0729 19.8956C20.3483 19.5775 20.5 19.1708 20.5 18.75V5.786C20.5 5.321 20.316 4.876 19.987 4.548L17.452 2.013C17.2895 1.85035 17.0965 1.72133 16.884 1.63331C16.6716 1.54528 16.4439 1.49998 16.214 1.5H16V5.75C16 6.04547 15.9418 6.33805 15.8287 6.61104C15.7157 6.88402 15.5499 7.13206 15.341 7.34099C15.1321 7.54992 14.884 7.71566 14.611 7.82873C14.3381 7.9418 14.0455 8 13.75 8H7.25C6.65326 8 6.08097 7.76295 5.65901 7.34099C5.23705 6.91903 5 6.34674 5 5.75V1.5H3.25ZM6.5 1.5V5.75C6.5 6.164 6.836 6.5 7.25 6.5H13.75C13.9489 6.5 14.1397 6.42098 14.2803 6.28033C14.421 6.13968 14.5 5.94891 14.5 5.75V1.5H6.5ZM17.5 20.5V13.25C17.5 13.0511 17.421 12.8603 17.2803 12.7197C17.1397 12.579 16.9489 12.5 16.75 12.5H5.25C5.05109 12.5 4.86032 12.579 4.71967 12.7197C4.57902 12.8603 4.5 13.0511 4.5 13.25V20.5H17.5ZM0 3.25C0 2.38805 0.34241 1.5614 0.951903 0.951903C1.5614 0.34241 2.38805 0 3.25 0H16.215C17.0769 5.14719e-05 17.9035 0.342495 18.513 0.952L21.048 3.487C21.658 4.097 22 4.924 22 5.786V18.75C22 19.612 21.6576 20.4386 21.0481 21.0481C20.4386 21.6576 19.612 22 18.75 22H3.25C2.38805 22 1.5614 21.6576 0.951903 21.0481C0.34241 20.4386 0 19.612 0 18.75V3.25Z" fill="#58A742"/>
</svg>
