<svg width="28" height="28" viewBox="0 0 28 28" fill="none" xmlns="http://www.w3.org/2000/svg">
<path d="M6.25 4.5C5.78587 4.5 5.34075 4.68437 5.01256 5.01256C4.68437 5.34075 4.5 5.78587 4.5 6.25V21.75C4.50001 22.1708 4.65165 22.5775 4.92714 22.8956C5.20263 23.2137 5.58351 23.4219 6 23.482V16.25C6 15.6533 6.23705 15.081 6.65901 14.659C7.08097 14.2371 7.65326 14 8.25 14H19.75C20.3467 14 20.919 14.2371 21.341 14.659C21.7629 15.081 22 15.6533 22 16.25V23.482C22.4165 23.4219 22.7974 23.2137 23.0729 22.8956C23.3483 22.5775 23.5 22.1708 23.5 21.75V8.786C23.5 8.321 23.316 7.876 22.987 7.548L20.452 5.013C20.2895 4.85035 20.0965 4.72133 19.884 4.63331C19.6716 4.54528 19.4439 4.49998 19.214 4.5H19V8.75C19 9.04547 18.9418 9.33805 18.8287 9.61104C18.7157 9.88402 18.5499 10.1321 18.341 10.341C18.1321 10.5499 17.884 10.7157 17.611 10.8287C17.3381 10.9418 17.0455 11 16.75 11H10.25C9.65326 11 9.08097 10.7629 8.65901 10.341C8.23705 9.91903 8 9.34674 8 8.75V4.5H6.25ZM9.5 4.5V8.75C9.5 9.164 9.836 9.5 10.25 9.5H16.75C16.9489 9.5 17.1397 9.42098 17.2803 9.28033C17.421 9.13968 17.5 8.94891 17.5 8.75V4.5H9.5ZM20.5 23.5V16.25C20.5 16.0511 20.421 15.8603 20.2803 15.7197C20.1397 15.579 19.9489 15.5 19.75 15.5H8.25C8.05109 15.5 7.86032 15.579 7.71967 15.7197C7.57902 15.8603 7.5 16.0511 7.5 16.25V23.5H20.5ZM3 6.25C3 5.38805 3.34241 4.5614 3.9519 3.9519C4.5614 3.34241 5.38805 3 6.25 3H19.215C20.0769 3.00005 20.9035 3.34249 21.513 3.952L24.048 6.487C24.658 7.097 25 7.924 25 8.786V21.75C25 22.612 24.6576 23.4386 24.0481 24.0481C23.4386 24.6576 22.612 25 21.75 25H6.25C5.38805 25 4.5614 24.6576 3.9519 24.0481C3.34241 23.4386 3 22.612 3 21.75V6.25Z" fill="#58A742"/>
</svg>
